<svg width="191" height="22" viewBox="0 0 191 22" fill="none" xmlns="http://www.w3.org/2000/svg">
<path d="M5.76 1.008L5.868 0.954C6.792 0.881999 7.842 1.092 9.018 1.584C9.618 1.236 10.098 1.23 10.458 1.566C10.842 1.914 11.01 2.178 10.962 2.358V6.804C10.386 7.368 9.816 7.422 9.252 6.966C9.048 5.55 8.418 4.29 7.362 3.186C6.99 3.03 6.552 2.988 6.048 3.06C5.76 3.24 5.496 3.492 5.256 3.816C4.068 6.48 4.044 9.336 5.184 12.384C5.316 12.636 5.508 12.852 5.76 13.032L5.868 13.14C7.632 13.824 8.928 13.056 9.756 10.836L10.116 10.62C11.208 10.86 11.55 11.508 11.142 12.564C10.374 14.364 8.982 15.45 6.966 15.822C5.058 16.05 3.378 15.366 1.926 13.77C0.786 12.27 0.288 10.458 0.432 8.334C0.24 5.514 1.404 3.246 3.924 1.53C4.596 1.254 5.208 1.08 5.76 1.008ZM12.232 9.162C12.1 7.578 13.09 6.63 15.202 6.318C19.354 5.73 21.148 7.392 20.584 11.304V13.824L20.638 14.148C20.998 14.352 21.448 14.454 21.988 14.454V15.552C20.044 16.404 18.52 16.224 17.416 15.012C16.648 15.708 15.67 16.038 14.482 16.002C13.282 16.038 12.406 15.474 11.854 14.31C11.59 12.282 12.604 10.998 14.896 10.458L16.624 9.954C16.696 9.93 16.78 9.9 16.876 9.864C16.984 9.816 17.098 9.768 17.218 9.72C17.254 9.492 17.242 9.174 17.182 8.766C17.206 8.046 16.834 7.62 16.066 7.488C15.922 7.524 15.742 7.608 15.526 7.74C15.802 8.46 15.718 9.156 15.274 9.828C14.05 10.548 13.036 10.326 12.232 9.162ZM17.218 11.412L17.182 11.178C16.222 11.454 15.61 12.066 15.346 13.014C15.502 14.274 16.114 14.472 17.182 13.608V11.664L17.218 11.412ZM26.7342 7.218C27.2742 6.678 27.9522 6.306 28.7682 6.102C29.2482 6.066 29.7582 6.168 30.2982 6.408C31.1262 7.176 31.3302 8.118 30.9102 9.234C30.4542 9.906 29.8242 10.194 29.0202 10.098C28.0722 9.942 27.5802 9.306 27.5442 8.19C27.2682 8.346 26.9802 8.574 26.6802 8.874V14.58C27.2082 14.676 27.4542 15.006 27.4182 15.57C27.2502 15.738 27.0222 15.822 26.7342 15.822H22.5582L22.3782 15.57C22.3422 15.042 22.6062 14.712 23.1702 14.58V7.452C22.6062 7.38 22.3602 7.032 22.4322 6.408L22.6842 6.174H26.2482L26.5542 6.228C26.6742 6.504 26.7342 6.834 26.7342 7.218ZM32.0237 8.586C31.9637 10.662 33.2297 11.928 35.8217 12.384L35.9477 12.474C36.1157 12.522 36.2717 12.576 36.4157 12.636C36.5717 12.684 36.7097 12.75 36.8297 12.834C37.2017 13.194 37.3097 13.578 37.1537 13.986C36.1937 14.982 35.1917 14.844 34.1477 13.572L33.7337 12.996L33.6437 12.762L33.4457 12.474C33.3497 12.222 33.2417 12.006 33.1217 11.826C32.7137 11.706 32.2997 11.718 31.8797 11.862V15.66C32.4677 15.984 33.0077 15.954 33.4997 15.57C33.6557 15.654 33.7937 15.708 33.9137 15.732C36.5777 16.62 38.6177 16.104 40.0337 14.184C40.4297 13.176 40.4297 12.24 40.0337 11.376L39.9797 11.286L39.7997 11.034C39.5477 10.71 39.3017 10.464 39.0617 10.296L38.8277 10.188L38.1797 9.864C38.1197 9.864 38.0117 9.822 37.8557 9.738C37.6517 9.702 37.5257 9.66 37.4777 9.612L36.8297 9.414L36.5057 9.288C36.3137 9.228 36.1337 9.168 35.9657 9.108C35.8097 9.036 35.6537 8.958 35.4977 8.874C35.0297 8.442 34.9937 7.992 35.3897 7.524C36.0377 7.2 36.6257 7.254 37.1537 7.686L37.3877 7.902L37.4777 8.01L37.7657 8.46L38.3597 9.774C38.9477 10.098 39.4397 10.044 39.8357 9.612L39.7997 6.336C39.7037 6.216 39.5957 6.108 39.4757 6.012C38.9477 5.916 38.5277 6 38.2157 6.264C37.3277 5.88 36.4517 5.7 35.5877 5.724C33.5117 5.976 32.3237 6.93 32.0237 8.586ZM40.7495 2.016C40.7495 1.728 40.8515 1.464 41.0555 1.224H45.2135C45.4295 1.224 45.6155 1.302 45.7715 1.458C45.8915 1.986 45.6635 2.334 45.0875 2.502V10.134L45.1595 10.494C45.3515 10.206 45.6575 9.9 46.0775 9.576L48.0575 7.596C47.1935 7.392 47.1515 6.984 47.9315 6.372L51.7295 6.408L52.1615 6.48C52.2335 6.684 52.2695 6.93 52.2695 7.218C52.1975 7.338 52.0775 7.464 51.9095 7.596C50.0375 8.148 48.8135 9.126 48.2375 10.53C49.2935 13.53 50.9975 15.654 53.3495 16.902L53.7095 17.208L54.3935 17.64C54.5375 17.676 54.6995 17.754 54.8795 17.874C55.8515 18.042 56.8475 17.838 57.8675 17.262C58.1195 17.79 57.8975 18.222 57.2015 18.558L56.5355 18.918L56.3375 18.99C52.1015 19.734 48.4775 17.478 45.4655 12.222L45.2135 11.916L44.9975 12.132L45.0335 14.562C45.3695 14.598 45.6515 14.76 45.8795 15.048C45.8795 15.228 45.8435 15.432 45.7715 15.66L45.3935 15.84H41.1815L40.8755 15.606C40.7195 15.03 40.9655 14.682 41.6135 14.562V2.502C41.2655 2.466 40.9775 2.304 40.7495 2.016ZM51.7901 7.506C52.2701 7.626 52.6541 7.842 52.9421 8.154L56.4341 16.182L56.6141 16.776C56.3381 17.256 56.1161 17.646 55.9481 17.946C55.7921 18.234 55.6901 18.426 55.6421 18.522C54.8021 17.334 53.8181 17.034 52.6901 17.622C51.8861 18.786 51.9881 19.83 52.9961 20.754C53.8841 21.078 54.7061 21.078 55.4621 20.754L55.7141 20.574C55.9061 20.454 56.0441 20.334 56.1281 20.214L56.6681 19.602L56.7941 19.368L57.4601 18.342L61.6181 8.1C61.9781 7.776 62.3381 7.554 62.6981 7.434V6.3H60.0521C59.4881 6.24 59.0261 6.258 58.6661 6.354V7.434C59.1461 7.566 59.5421 7.746 59.8541 7.974C59.8541 8.022 59.3741 9.45 58.4141 12.258L56.4881 7.794C56.6681 7.71 56.8421 7.644 57.0101 7.596C57.1781 7.536 57.3461 7.482 57.5141 7.434C57.5981 7.038 57.5981 6.678 57.5141 6.354C57.2381 6.258 56.9741 6.24 56.7221 6.3H51.7901V7.506ZM62.5757 9.162C62.4437 7.578 63.4337 6.63 65.5457 6.318C69.6977 5.73 71.4917 7.392 70.9277 11.304V13.824L70.9817 14.148C71.3417 14.352 71.7917 14.454 72.3317 14.454V15.552C70.3877 16.404 68.8637 16.224 67.7597 15.012C66.9917 15.708 66.0137 16.038 64.8257 16.002C63.6257 16.038 62.7497 15.474 62.1977 14.31C61.9337 12.282 62.9477 10.998 65.2397 10.458L66.9677 9.954C67.0397 9.93 67.1237 9.9 67.2197 9.864C67.3277 9.816 67.4417 9.768 67.5617 9.72C67.5977 9.492 67.5857 9.174 67.5257 8.766C67.5497 8.046 67.1777 7.62 66.4097 7.488C66.2657 7.524 66.0857 7.608 65.8697 7.74C66.1457 8.46 66.0617 9.156 65.6177 9.828C64.3937 10.548 63.3797 10.326 62.5757 9.162ZM67.5617 11.412L67.5257 11.178C66.5657 11.454 65.9537 12.066 65.6897 13.014C65.8457 14.274 66.4577 14.472 67.5257 13.608V11.664L67.5617 11.412ZM72.128 7.506C72.608 7.626 72.992 7.842 73.28 8.154L76.772 16.182L76.952 16.776C76.676 17.256 76.454 17.646 76.286 17.946C76.13 18.234 76.028 18.426 75.98 18.522C75.14 17.334 74.156 17.034 73.028 17.622C72.224 18.786 72.326 19.83 73.334 20.754C74.222 21.078 75.044 21.078 75.8 20.754L76.052 20.574C76.244 20.454 76.382 20.334 76.466 20.214L77.006 19.602L77.132 19.368L77.798 18.342L81.956 8.1C82.316 7.776 82.676 7.554 83.036 7.434V6.3H80.39C79.826 6.24 79.364 6.258 79.004 6.354V7.434C79.484 7.566 79.88 7.746 80.192 7.974C80.192 8.022 79.712 9.45 78.752 12.258L76.826 7.794C77.006 7.71 77.18 7.644 77.348 7.596C77.516 7.536 77.684 7.482 77.852 7.434C77.936 7.038 77.936 6.678 77.852 6.354C77.576 6.258 77.312 6.24 77.06 6.3H72.128V7.506ZM82.9136 9.162C82.7816 7.578 83.7716 6.63 85.8836 6.318C90.0356 5.73 91.8296 7.392 91.2656 11.304V13.824L91.3196 14.148C91.6796 14.352 92.1296 14.454 92.6696 14.454V15.552C90.7256 16.404 89.2016 16.224 88.0976 15.012C87.3296 15.708 86.3516 16.038 85.1636 16.002C83.9636 16.038 83.0876 15.474 82.5356 14.31C82.2716 12.282 83.2856 10.998 85.5776 10.458L87.3056 9.954C87.3776 9.93 87.4616 9.9 87.5576 9.864C87.6656 9.816 87.7796 9.768 87.8996 9.72C87.9356 9.492 87.9236 9.174 87.8636 8.766C87.8876 8.046 87.5156 7.62 86.7476 7.488C86.6036 7.524 86.4236 7.608 86.2076 7.74C86.4836 8.46 86.3996 9.156 85.9556 9.828C84.7316 10.548 83.7176 10.326 82.9136 9.162ZM87.8996 11.412L87.8636 11.178C86.9036 11.454 86.2916 12.066 86.0276 13.014C86.1836 14.274 86.7956 14.472 87.8636 13.608V11.664L87.8996 11.412ZM109.116 15.066L107.766 13.788C107.394 14.484 106.986 15.03 106.542 15.426C106.11 15.81 105.57 16.002 104.922 16.002C104.418 16.002 103.932 15.9 103.464 15.696C103.008 15.492 102.54 15.27 102.06 15.03C101.592 14.802 101.07 14.586 100.494 14.382C99.9179 14.166 99.2579 14.058 98.5139 14.058C97.8899 14.058 97.3019 14.196 96.7499 14.472C96.1979 14.736 95.7179 15.054 95.3099 15.426C94.8659 15.834 94.4939 16.26 94.1939 16.704C93.8939 17.148 93.6659 17.796 93.5099 18.648L94.9139 19.116C95.3219 18.324 95.7419 17.76 96.1739 17.424C96.6179 17.076 97.1459 16.902 97.7579 16.902C98.1899 16.902 98.6699 17.016 99.1979 17.244C99.4739 17.352 99.7319 17.46 99.9719 17.568C100.212 17.676 100.434 17.778 100.638 17.874C101.178 18.126 101.724 18.348 102.276 18.54C102.84 18.744 103.47 18.846 104.166 18.846C104.778 18.846 105.348 18.72 105.876 18.468C106.416 18.216 106.914 17.886 107.37 17.478C107.742 17.142 108.078 16.758 108.378 16.326C108.69 15.894 108.936 15.474 109.116 15.066ZM110.959 5.202C111.343 2.802 112.855 1.422 115.495 1.062C116.683 1.038 117.805 1.296 118.861 1.836C119.317 1.488 119.851 1.368 120.463 1.476C120.619 1.596 120.751 1.758 120.859 1.962L120.931 6.678C120.415 7.302 119.785 7.38 119.041 6.912L118.267 5.022L117.907 4.374L117.799 4.194L117.493 3.906C116.809 3.27 116.065 3.192 115.261 3.672C114.745 4.332 114.787 4.98 115.387 5.616C115.723 5.856 116.155 6.054 116.683 6.21L117.097 6.372L117.907 6.678C117.967 6.702 118.033 6.732 118.105 6.768C118.189 6.804 118.285 6.834 118.393 6.858C118.585 6.978 118.723 7.038 118.807 7.038L119.635 7.506L119.923 7.686C120.079 7.806 120.235 7.956 120.391 8.136C120.547 8.304 120.703 8.508 120.859 8.748L121.111 9.09L121.165 9.216C121.681 10.476 121.681 11.832 121.165 13.284C119.341 16.044 116.743 16.794 113.371 15.534C113.215 15.486 113.041 15.408 112.849 15.3C112.213 15.84 111.523 15.876 110.779 15.408V9.918C111.283 9.726 111.811 9.708 112.363 9.864C112.447 9.996 112.519 10.146 112.579 10.314C112.651 10.47 112.717 10.632 112.777 10.8L113.011 11.214L113.137 11.574L113.677 12.402C115.009 14.226 116.281 14.424 117.493 12.996C117.685 12.42 117.553 11.868 117.097 11.34C116.785 11.112 116.407 10.932 115.963 10.8L115.801 10.692C112.477 10.02 110.863 8.19 110.959 5.202ZM122.88 2.502V14.454C122.172 14.55 121.896 14.91 122.052 15.534C122.124 15.582 122.196 15.63 122.268 15.678C122.352 15.714 122.442 15.744 122.538 15.768H126.498L126.858 15.462C126.894 14.898 126.672 14.592 126.192 14.544V8.928C126.552 8.532 126.948 8.25 127.38 8.082C128.076 8.082 128.508 8.4 128.676 9.036V14.76L128.748 15.174L128.802 15.822L129.45 17.55C130.194 18.45 131.082 18.984 132.114 19.152C134.574 19.74 136.584 19.224 138.144 17.604C138.192 17.376 138.174 17.178 138.09 17.01C137.85 16.89 137.634 16.854 137.442 16.902C135.546 18.486 133.926 18.324 132.582 16.416C132.21 15.792 132.018 14.784 132.006 13.392V10.53C132.078 9.81 132.078 9.216 132.006 8.748V8.568L131.7 7.614C130.2 5.706 128.364 5.586 126.192 7.254V2.502C126.264 1.746 126.024 1.326 125.472 1.242H122.628C121.956 1.806 122.04 2.226 122.88 2.502ZM133.539 9.162C133.407 7.578 134.397 6.63 136.509 6.318C140.661 5.73 142.455 7.392 141.891 11.304V13.824L141.945 14.148C142.305 14.352 142.755 14.454 143.295 14.454V15.552C141.351 16.404 139.827 16.224 138.723 15.012C137.955 15.708 136.977 16.038 135.789 16.002C134.589 16.038 133.713 15.474 133.161 14.31C132.897 12.282 133.911 10.998 136.203 10.458L137.931 9.954C138.003 9.93 138.087 9.9 138.183 9.864C138.291 9.816 138.405 9.768 138.525 9.72C138.561 9.492 138.549 9.174 138.489 8.766C138.513 8.046 138.141 7.62 137.373 7.488C137.229 7.524 137.049 7.608 136.833 7.74C137.109 8.46 137.025 9.156 136.581 9.828C135.357 10.548 134.343 10.326 133.539 9.162ZM138.525 11.412L138.489 11.178C137.529 11.454 136.917 12.066 136.653 13.014C136.809 14.274 137.421 14.472 138.489 13.608V11.664L138.525 11.412ZM144.225 7.542C143.577 7.362 143.391 6.99 143.667 6.426H147.177L147.465 6.498C147.537 6.882 147.537 7.314 147.465 7.794V12.888C147.465 13.212 147.573 13.488 147.789 13.716C147.909 13.836 148.053 13.914 148.221 13.95C148.389 13.986 148.563 13.986 148.743 13.95C148.935 13.902 149.127 13.824 149.319 13.716C149.511 13.596 149.691 13.452 149.859 13.284V7.56C149.319 7.488 149.079 7.188 149.139 6.66C149.163 6.636 149.199 6.606 149.247 6.57C149.307 6.522 149.379 6.474 149.463 6.426H153.099L153.261 6.714C153.261 6.978 153.207 7.224 153.099 7.452L153.081 14.58C153.525 14.58 153.783 14.742 153.855 15.066C153.927 15.39 153.831 15.642 153.567 15.822H150.579C150.087 15.558 149.835 15.198 149.823 14.742C147.819 16.35 146.073 16.26 144.585 14.472L144.297 13.608L144.243 13.176L144.225 7.542ZM158.57 7.218C159.11 6.678 159.788 6.306 160.604 6.102C161.084 6.066 161.594 6.168 162.134 6.408C162.962 7.176 163.166 8.118 162.746 9.234C162.29 9.906 161.66 10.194 160.856 10.098C159.908 9.942 159.416 9.306 159.38 8.19C159.104 8.346 158.816 8.574 158.516 8.874V14.58C159.044 14.676 159.29 15.006 159.254 15.57C159.086 15.738 158.858 15.822 158.57 15.822H154.394L154.214 15.57C154.178 15.042 154.442 14.712 155.006 14.58V7.452C154.442 7.38 154.196 7.032 154.268 6.408L154.52 6.174H158.084L158.39 6.228C158.51 6.504 158.57 6.834 158.57 7.218ZM163.446 7.092C163.35 6.708 163.506 6.414 163.914 6.21H167.838L167.802 6.588C168.438 6.348 169.278 6.222 170.322 6.21C171.39 6.186 172.32 6.672 173.112 7.668C173.976 6.744 175.104 6.3 176.496 6.336C177.552 6.396 178.362 6.918 178.926 7.902C179.034 8.178 179.088 8.466 179.088 8.766C179.136 8.946 179.16 9.18 179.16 9.468V14.544C179.556 14.64 179.772 14.892 179.808 15.3L179.376 15.786L175.722 15.768C175.494 15.768 175.272 15.726 175.056 15.642C174.72 14.946 174.978 14.58 175.83 14.544V9.702C175.83 9.426 175.794 9.114 175.722 8.766C175.002 7.926 174.228 8.004 173.4 9V14.58C173.82 14.628 174.06 14.88 174.12 15.336L173.814 15.75H170.376C170.088 15.786 169.752 15.762 169.368 15.678C169.248 15.486 169.188 15.24 169.188 14.94C169.368 14.76 169.65 14.64 170.034 14.58V9.702C170.07 9.45 170.046 9.198 169.962 8.946L169.908 8.658C169.632 8.31 169.236 8.154 168.72 8.19C168.276 8.394 167.904 8.682 167.604 9.054L167.586 14.526C168.234 14.658 168.474 15.012 168.306 15.588L167.946 15.768H163.86L163.626 15.66C163.398 15.072 163.614 14.706 164.274 14.562V7.434C163.95 7.434 163.674 7.32 163.446 7.092ZM180.929 9.162C180.797 7.578 181.787 6.63 183.899 6.318C188.051 5.73 189.845 7.392 189.281 11.304V13.824L189.335 14.148C189.695 14.352 190.145 14.454 190.685 14.454V15.552C188.741 16.404 187.217 16.224 186.113 15.012C185.345 15.708 184.367 16.038 183.179 16.002C181.979 16.038 181.103 15.474 180.551 14.31C180.287 12.282 181.301 10.998 183.593 10.458L185.321 9.954C185.393 9.93 185.477 9.9 185.573 9.864C185.681 9.816 185.795 9.768 185.915 9.72C185.951 9.492 185.939 9.174 185.879 8.766C185.903 8.046 185.531 7.62 184.763 7.488C184.619 7.524 184.439 7.608 184.223 7.74C184.499 8.46 184.415 9.156 183.971 9.828C182.747 10.548 181.733 10.326 180.929 9.162ZM185.915 11.412L185.879 11.178C184.919 11.454 184.307 12.066 184.043 13.014C184.199 14.274 184.811 14.472 185.879 13.608V11.664L185.915 11.412Z" fill="black"/>
</svg>
