<svg width="93" height="44" viewBox="0 0 93 44" fill="none" xmlns="http://www.w3.org/2000/svg">
<path d="M5.76 1.008L5.868 0.954C6.792 0.881999 7.842 1.092 9.018 1.584C9.618 1.236 10.098 1.23 10.458 1.566C10.842 1.914 11.01 2.178 10.962 2.358V6.804C10.386 7.368 9.816 7.422 9.252 6.966C9.048 5.55 8.418 4.29 7.362 3.186C6.99 3.03 6.552 2.988 6.048 3.06C5.76 3.24 5.496 3.492 5.256 3.816C4.068 6.48 4.044 9.336 5.184 12.384C5.316 12.636 5.508 12.852 5.76 13.032L5.868 13.14C7.632 13.824 8.928 13.056 9.756 10.836L10.116 10.62C11.208 10.86 11.55 11.508 11.142 12.564C10.374 14.364 8.982 15.45 6.966 15.822C5.058 16.05 3.378 15.366 1.926 13.77C0.786 12.27 0.288 10.458 0.432 8.334C0.24 5.514 1.404 3.246 3.924 1.53C4.596 1.254 5.208 1.08 5.76 1.008ZM12.232 9.162C12.1 7.578 13.09 6.63 15.202 6.318C19.354 5.73 21.148 7.392 20.584 11.304V13.824L20.638 14.148C20.998 14.352 21.448 14.454 21.988 14.454V15.552C20.044 16.404 18.52 16.224 17.416 15.012C16.648 15.708 15.67 16.038 14.482 16.002C13.282 16.038 12.406 15.474 11.854 14.31C11.59 12.282 12.604 10.998 14.896 10.458L16.624 9.954C16.696 9.93 16.78 9.9 16.876 9.864C16.984 9.816 17.098 9.768 17.218 9.72C17.254 9.492 17.242 9.174 17.182 8.766C17.206 8.046 16.834 7.62 16.066 7.488C15.922 7.524 15.742 7.608 15.526 7.74C15.802 8.46 15.718 9.156 15.274 9.828C14.05 10.548 13.036 10.326 12.232 9.162ZM17.218 11.412L17.182 11.178C16.222 11.454 15.61 12.066 15.346 13.014C15.502 14.274 16.114 14.472 17.182 13.608V11.664L17.218 11.412ZM26.7342 7.218C27.2742 6.678 27.9522 6.306 28.7682 6.102C29.2482 6.066 29.7582 6.168 30.2982 6.408C31.1262 7.176 31.3302 8.118 30.9102 9.234C30.4542 9.906 29.8242 10.194 29.0202 10.098C28.0722 9.942 27.5802 9.306 27.5442 8.19C27.2682 8.346 26.9802 8.574 26.6802 8.874V14.58C27.2082 14.676 27.4542 15.006 27.4182 15.57C27.2502 15.738 27.0222 15.822 26.7342 15.822H22.5582L22.3782 15.57C22.3422 15.042 22.6062 14.712 23.1702 14.58V7.452C22.6062 7.38 22.3602 7.032 22.4322 6.408L22.6842 6.174H26.2482L26.5542 6.228C26.6742 6.504 26.7342 6.834 26.7342 7.218ZM32.0237 8.586C31.9637 10.662 33.2297 11.928 35.8217 12.384L35.9477 12.474C36.1157 12.522 36.2717 12.576 36.4157 12.636C36.5717 12.684 36.7097 12.75 36.8297 12.834C37.2017 13.194 37.3097 13.578 37.1537 13.986C36.1937 14.982 35.1917 14.844 34.1477 13.572L33.7337 12.996L33.6437 12.762L33.4457 12.474C33.3497 12.222 33.2417 12.006 33.1217 11.826C32.7137 11.706 32.2997 11.718 31.8797 11.862V15.66C32.4677 15.984 33.0077 15.954 33.4997 15.57C33.6557 15.654 33.7937 15.708 33.9137 15.732C36.5777 16.62 38.6177 16.104 40.0337 14.184C40.4297 13.176 40.4297 12.24 40.0337 11.376L39.9797 11.286L39.7997 11.034C39.5477 10.71 39.3017 10.464 39.0617 10.296L38.8277 10.188L38.1797 9.864C38.1197 9.864 38.0117 9.822 37.8557 9.738C37.6517 9.702 37.5257 9.66 37.4777 9.612L36.8297 9.414L36.5057 9.288C36.3137 9.228 36.1337 9.168 35.9657 9.108C35.8097 9.036 35.6537 8.958 35.4977 8.874C35.0297 8.442 34.9937 7.992 35.3897 7.524C36.0377 7.2 36.6257 7.254 37.1537 7.686L37.3877 7.902L37.4777 8.01L37.7657 8.46L38.3597 9.774C38.9477 10.098 39.4397 10.044 39.8357 9.612L39.7997 6.336C39.7037 6.216 39.5957 6.108 39.4757 6.012C38.9477 5.916 38.5277 6 38.2157 6.264C37.3277 5.88 36.4517 5.7 35.5877 5.724C33.5117 5.976 32.3237 6.93 32.0237 8.586ZM40.7495 2.016C40.7495 1.728 40.8515 1.464 41.0555 1.224H45.2135C45.4295 1.224 45.6155 1.302 45.7715 1.458C45.8915 1.986 45.6635 2.334 45.0875 2.502V10.134L45.1595 10.494C45.3515 10.206 45.6575 9.9 46.0775 9.576L48.0575 7.596C47.1935 7.392 47.1515 6.984 47.9315 6.372L51.7295 6.408L52.1615 6.48C52.2335 6.684 52.2695 6.93 52.2695 7.218C52.1975 7.338 52.0775 7.464 51.9095 7.596C50.0375 8.148 48.8135 9.126 48.2375 10.53C49.2935 13.53 50.9975 15.654 53.3495 16.902L53.7095 17.208L54.3935 17.64C54.5375 17.676 54.6995 17.754 54.8795 17.874C55.8515 18.042 56.8475 17.838 57.8675 17.262C58.1195 17.79 57.8975 18.222 57.2015 18.558L56.5355 18.918L56.3375 18.99C52.1015 19.734 48.4775 17.478 45.4655 12.222L45.2135 11.916L44.9975 12.132L45.0335 14.562C45.3695 14.598 45.6515 14.76 45.8795 15.048C45.8795 15.228 45.8435 15.432 45.7715 15.66L45.3935 15.84H41.1815L40.8755 15.606C40.7195 15.03 40.9655 14.682 41.6135 14.562V2.502C41.2655 2.466 40.9775 2.304 40.7495 2.016ZM51.7901 7.506C52.2701 7.626 52.6541 7.842 52.9421 8.154L56.4341 16.182L56.6141 16.776C56.3381 17.256 56.1161 17.646 55.9481 17.946C55.7921 18.234 55.6901 18.426 55.6421 18.522C54.8021 17.334 53.8181 17.034 52.6901 17.622C51.8861 18.786 51.9881 19.83 52.9961 20.754C53.8841 21.078 54.7061 21.078 55.4621 20.754L55.7141 20.574C55.9061 20.454 56.0441 20.334 56.1281 20.214L56.6681 19.602L56.7941 19.368L57.4601 18.342L61.6181 8.1C61.9781 7.776 62.3381 7.554 62.6981 7.434V6.3H60.0521C59.4881 6.24 59.0261 6.258 58.6661 6.354V7.434C59.1461 7.566 59.5421 7.746 59.8541 7.974C59.8541 8.022 59.3741 9.45 58.4141 12.258L56.4881 7.794C56.6681 7.71 56.8421 7.644 57.0101 7.596C57.1781 7.536 57.3461 7.482 57.5141 7.434C57.5981 7.038 57.5981 6.678 57.5141 6.354C57.2381 6.258 56.9741 6.24 56.7221 6.3H51.7901V7.506ZM62.5757 9.162C62.4437 7.578 63.4337 6.63 65.5457 6.318C69.6977 5.73 71.4917 7.392 70.9277 11.304V13.824L70.9817 14.148C71.3417 14.352 71.7917 14.454 72.3317 14.454V15.552C70.3877 16.404 68.8637 16.224 67.7597 15.012C66.9917 15.708 66.0137 16.038 64.8257 16.002C63.6257 16.038 62.7497 15.474 62.1977 14.31C61.9337 12.282 62.9477 10.998 65.2397 10.458L66.9677 9.954C67.0397 9.93 67.1237 9.9 67.2197 9.864C67.3277 9.816 67.4417 9.768 67.5617 9.72C67.5977 9.492 67.5857 9.174 67.5257 8.766C67.5497 8.046 67.1777 7.62 66.4097 7.488C66.2657 7.524 66.0857 7.608 65.8697 7.74C66.1457 8.46 66.0617 9.156 65.6177 9.828C64.3937 10.548 63.3797 10.326 62.5757 9.162ZM67.5617 11.412L67.5257 11.178C66.5657 11.454 65.9537 12.066 65.6897 13.014C65.8457 14.274 66.4577 14.472 67.5257 13.608V11.664L67.5617 11.412ZM72.128 7.506C72.608 7.626 72.992 7.842 73.28 8.154L76.772 16.182L76.952 16.776C76.676 17.256 76.454 17.646 76.286 17.946C76.13 18.234 76.028 18.426 75.98 18.522C75.14 17.334 74.156 17.034 73.028 17.622C72.224 18.786 72.326 19.83 73.334 20.754C74.222 21.078 75.044 21.078 75.8 20.754L76.052 20.574C76.244 20.454 76.382 20.334 76.466 20.214L77.006 19.602L77.132 19.368L77.798 18.342L81.956 8.1C82.316 7.776 82.676 7.554 83.036 7.434V6.3H80.39C79.826 6.24 79.364 6.258 79.004 6.354V7.434C79.484 7.566 79.88 7.746 80.192 7.974C80.192 8.022 79.712 9.45 78.752 12.258L76.826 7.794C77.006 7.71 77.18 7.644 77.348 7.596C77.516 7.536 77.684 7.482 77.852 7.434C77.936 7.038 77.936 6.678 77.852 6.354C77.576 6.258 77.312 6.24 77.06 6.3H72.128V7.506ZM82.9136 9.162C82.7816 7.578 83.7716 6.63 85.8836 6.318C90.0356 5.73 91.8296 7.392 91.2656 11.304V13.824L91.3196 14.148C91.6796 14.352 92.1296 14.454 92.6696 14.454V15.552C90.7256 16.404 89.2016 16.224 88.0976 15.012C87.3296 15.708 86.3516 16.038 85.1636 16.002C83.9636 16.038 83.0876 15.474 82.5356 14.31C82.2716 12.282 83.2856 10.998 85.5776 10.458L87.3056 9.954C87.3776 9.93 87.4616 9.9 87.5576 9.864C87.6656 9.816 87.7796 9.768 87.8996 9.72C87.9356 9.492 87.9236 9.174 87.8636 8.766C87.8876 8.046 87.5156 7.62 86.7476 7.488C86.6036 7.524 86.4236 7.608 86.2076 7.74C86.4836 8.46 86.3996 9.156 85.9556 9.828C84.7316 10.548 83.7176 10.326 82.9136 9.162ZM87.8996 11.412L87.8636 11.178C86.9036 11.454 86.2916 12.066 86.0276 13.014C86.1836 14.274 86.7956 14.472 87.8636 13.608V11.664L87.8996 11.412ZM0.99 28.202C1.374 25.802 2.886 24.422 5.526 24.062C6.714 24.038 7.836 24.296 8.892 24.836C9.348 24.488 9.882 24.368 10.494 24.476C10.65 24.596 10.782 24.758 10.89 24.962L10.962 29.678C10.446 30.302 9.816 30.38 9.072 29.912L8.298 28.022L7.938 27.374L7.83 27.194L7.524 26.906C6.84 26.27 6.096 26.192 5.292 26.672C4.776 27.332 4.818 27.98 5.418 28.616C5.754 28.856 6.186 29.054 6.714 29.21L7.128 29.372L7.938 29.678C7.998 29.702 8.064 29.732 8.136 29.768C8.22 29.804 8.316 29.834 8.424 29.858C8.616 29.978 8.754 30.038 8.838 30.038L9.666 30.506L9.954 30.686C10.11 30.806 10.266 30.956 10.422 31.136C10.578 31.304 10.734 31.508 10.89 31.748L11.142 32.09L11.196 32.216C11.712 33.476 11.712 34.832 11.196 36.284C9.372 39.044 6.774 39.794 3.402 38.534C3.246 38.486 3.072 38.408 2.88 38.3C2.244 38.84 1.554 38.876 0.81 38.408V32.918C1.314 32.726 1.842 32.708 2.394 32.864C2.478 32.996 2.55 33.146 2.61 33.314C2.682 33.47 2.748 33.632 2.808 33.8L3.042 34.214L3.168 34.574L3.708 35.402C5.04 37.226 6.312 37.424 7.524 35.996C7.716 35.42 7.584 34.868 7.128 34.34C6.816 34.112 6.438 33.932 5.994 33.8L5.832 33.692C2.508 33.02 0.894 31.19 0.99 28.202ZM12.9109 25.502V37.454C12.2029 37.55 11.9269 37.91 12.0829 38.534C12.1549 38.582 12.2269 38.63 12.2989 38.678C12.3829 38.714 12.4729 38.744 12.5689 38.768H16.5289L16.8889 38.462C16.9249 37.898 16.7029 37.592 16.2229 37.544V31.928C16.5829 31.532 16.9789 31.25 17.4109 31.082C18.1069 31.082 18.5389 31.4 18.7069 32.036V37.76L18.7789 38.174L18.8329 38.822L19.4809 40.55C20.2249 41.45 21.1129 41.984 22.1449 42.152C24.6049 42.74 26.6149 42.224 28.1749 40.604C28.2229 40.376 28.2049 40.178 28.1209 40.01C27.8809 39.89 27.6649 39.854 27.4729 39.902C25.5769 41.486 23.9569 41.324 22.6129 39.416C22.2409 38.792 22.0489 37.784 22.0369 36.392V33.53C22.1089 32.81 22.1089 32.216 22.0369 31.748V31.568L21.7309 30.614C20.2309 28.706 18.3949 28.586 16.2229 30.254V25.502C16.2949 24.746 16.0549 24.326 15.5029 24.242H12.6589C11.9869 24.806 12.0709 25.226 12.9109 25.502ZM23.5699 32.162C23.4379 30.578 24.4279 29.63 26.5399 29.318C30.6919 28.73 32.4859 30.392 31.9219 34.304V36.824L31.9759 37.148C32.3359 37.352 32.7859 37.454 33.3259 37.454V38.552C31.3819 39.404 29.8579 39.224 28.7539 38.012C27.9859 38.708 27.0079 39.038 25.8199 39.002C24.6199 39.038 23.7439 38.474 23.1919 37.31C22.9279 35.282 23.9419 33.998 26.2339 33.458L27.9619 32.954C28.0339 32.93 28.1179 32.9 28.2139 32.864C28.3219 32.816 28.4359 32.768 28.5559 32.72C28.5919 32.492 28.5799 32.174 28.5199 31.766C28.5439 31.046 28.1719 30.62 27.4039 30.488C27.2599 30.524 27.0799 30.608 26.8639 30.74C27.1399 31.46 27.0559 32.156 26.6119 32.828C25.3879 33.548 24.3739 33.326 23.5699 32.162ZM28.5559 34.412L28.5199 34.178C27.5599 34.454 26.9479 35.066 26.6839 36.014C26.8399 37.274 27.4519 37.472 28.5199 36.608V34.664L28.5559 34.412ZM34.2561 30.542C33.6081 30.362 33.4221 29.99 33.6981 29.426H37.2081L37.4961 29.498C37.5681 29.882 37.5681 30.314 37.4961 30.794V35.888C37.4961 36.212 37.6041 36.488 37.8201 36.716C37.9401 36.836 38.0841 36.914 38.2521 36.95C38.4201 36.986 38.5941 36.986 38.7741 36.95C38.9661 36.902 39.1581 36.824 39.3501 36.716C39.5421 36.596 39.7221 36.452 39.8901 36.284V30.56C39.3501 30.488 39.1101 30.188 39.1701 29.66C39.1941 29.636 39.2301 29.606 39.2781 29.57C39.3381 29.522 39.4101 29.474 39.4941 29.426H43.1301L43.2921 29.714C43.2921 29.978 43.2381 30.224 43.1301 30.452L43.1121 37.58C43.5561 37.58 43.8141 37.742 43.8861 38.066C43.9581 38.39 43.8621 38.642 43.5981 38.822H40.6101C40.1181 38.558 39.8661 38.198 39.8541 37.742C37.8501 39.35 36.1041 39.26 34.6161 37.472L34.3281 36.608L34.2741 36.176L34.2561 30.542ZM48.6014 30.218C49.1414 29.678 49.8194 29.306 50.6354 29.102C51.1154 29.066 51.6254 29.168 52.1654 29.408C52.9934 30.176 53.1974 31.118 52.7774 32.234C52.3214 32.906 51.6914 33.194 50.8874 33.098C49.9394 32.942 49.4474 32.306 49.4114 31.19C49.1354 31.346 48.8474 31.574 48.5474 31.874V37.58C49.0754 37.676 49.3214 38.006 49.2854 38.57C49.1174 38.738 48.8894 38.822 48.6014 38.822H44.4254L44.2454 38.57C44.2094 38.042 44.4734 37.712 45.0374 37.58V30.452C44.4734 30.38 44.2274 30.032 44.2994 29.408L44.5514 29.174H48.1154L48.4214 29.228C48.5414 29.504 48.6014 29.834 48.6014 30.218ZM53.4769 30.092C53.3809 29.708 53.5369 29.414 53.9449 29.21H57.8689L57.8329 29.588C58.4689 29.348 59.3089 29.222 60.3529 29.21C61.4209 29.186 62.3509 29.672 63.1429 30.668C64.0069 29.744 65.1349 29.3 66.5269 29.336C67.5829 29.396 68.3929 29.918 68.9569 30.902C69.0649 31.178 69.1189 31.466 69.1189 31.766C69.1669 31.946 69.1909 32.18 69.1909 32.468V37.544C69.5869 37.64 69.8029 37.892 69.8389 38.3L69.4069 38.786L65.7529 38.768C65.5249 38.768 65.3029 38.726 65.0869 38.642C64.7509 37.946 65.0089 37.58 65.8609 37.544V32.702C65.8609 32.426 65.8249 32.114 65.7529 31.766C65.0329 30.926 64.2589 31.004 63.4309 32V37.58C63.8509 37.628 64.0909 37.88 64.1509 38.336L63.8449 38.75H60.4069C60.1189 38.786 59.7829 38.762 59.3989 38.678C59.2789 38.486 59.2189 38.24 59.2189 37.94C59.3989 37.76 59.6809 37.64 60.0649 37.58V32.702C60.1009 32.45 60.0769 32.198 59.9929 31.946L59.9389 31.658C59.6629 31.31 59.2669 31.154 58.7509 31.19C58.3069 31.394 57.9349 31.682 57.6349 32.054L57.6169 37.526C58.2649 37.658 58.5049 38.012 58.3369 38.588L57.9769 38.768H53.8909L53.6569 38.66C53.4289 38.072 53.6449 37.706 54.3049 37.562V30.434C53.9809 30.434 53.7049 30.32 53.4769 30.092ZM70.9605 32.162C70.8285 30.578 71.8185 29.63 73.9305 29.318C78.0825 28.73 79.8765 30.392 79.3125 34.304V36.824L79.3665 37.148C79.7265 37.352 80.1765 37.454 80.7165 37.454V38.552C78.7725 39.404 77.2485 39.224 76.1445 38.012C75.3765 38.708 74.3985 39.038 73.2105 39.002C72.0105 39.038 71.1345 38.474 70.5825 37.31C70.3185 35.282 71.3325 33.998 73.6245 33.458L75.3525 32.954C75.4245 32.93 75.5085 32.9 75.6045 32.864C75.7125 32.816 75.8265 32.768 75.9465 32.72C75.9825 32.492 75.9705 32.174 75.9105 31.766C75.9345 31.046 75.5625 30.62 74.7945 30.488C74.6505 30.524 74.4705 30.608 74.2545 30.74C74.5305 31.46 74.4465 32.156 74.0025 32.828C72.7785 33.548 71.7645 33.326 70.9605 32.162ZM75.9465 34.412L75.9105 34.178C74.9505 34.454 74.3385 35.066 74.0745 36.014C74.2305 37.274 74.8425 37.472 75.9105 36.608V34.664L75.9465 34.412Z" fill="black"/>
</svg>
